Coordinates
version=1
nRows=7
nColumns=40
inDegrees=yes

Units are S.I. units (second, meters, Newtons, ...)
If the header above contains a line with 'inDegrees', this indicates whether rotational values are in degrees (yes) or radians (no).

endheader
time	pelvis_tilt	pelvis_list	pelvis_rotation	pelvis_tx	pelvis_ty	pelvis_tz	hip_flexion_r	hip_adduction_r	hip_rotation_r	knee_angle_r	knee_angle_r_beta	ankle_angle_r	subtalar_angle_r	mtp_angle_r	hip_flexion_l	hip_adduction_l	hip_rotation_l	knee_angle_l	knee_angle_l_beta	ankle_angle_l	subtalar_angle_l	mtp_angle_l	lumbar_extension	lumbar_bending	lumbar_rotation	arm_flex_r	arm_add_r	arm_rot_r	elbow_flex_r	pro_sup_r	wrist_flex_r	wrist_dev_r	arm_flex_l	arm_add_l	arm_rot_l	elbow_flex_l	pro_sup_l	wrist_flex_l	wrist_dev_l
      0.62800000	     15.20603955	     -2.67297331	     -0.09109876	      0.97356168	      0.93521853	     -0.30364694	    -29.65486139	      2.51516332	     -0.04922550	     27.67977172	      0.48310315	    -15.49474792	      0.00000000	      0.00000000	     15.82137344	     -2.08188778	     -0.50360961	     22.53534333	      0.39331594	    -19.47811974	      0.00000000	      0.00000000	    -29.78143596	      1.02015456	      4.93187148	     15.28763035	    -18.46556871	     18.25099657	     42.53779864	     73.58745453	      0.00000000	      0.00000000	      0.87685468	    -21.06763533	     19.60236935	     42.81504164	     73.09592354	      0.00000000	      0.00000000
      0.63200000	     15.25225174	     -2.45074839	      0.00440225	      0.98019295	      0.93532473	     -0.30414315	    -29.64489943	      2.33188129	      0.27735721	     28.25657422	      0.49317026	    -16.50283660	      0.00000000	      0.00000000	     15.76099263	     -1.76261101	     -0.04282228	     23.23656946	      0.40555464	    -19.55484273	      0.00000000	      0.00000000	    -29.74830274	      0.81054300	      4.65573696	     15.09534037	    -18.22034180	     18.05062729	     42.38425601	     73.62844331	      0.00000000	      0.00000000	      0.80010207	    -21.07394431	     19.55523725	     42.65376290	     73.08728459	      0.00000000	      0.00000000
      0.63600000	     15.35998724	     -2.21851650	      0.07302828	      0.98697844	      0.93556868	     -0.30471141	    -29.63167198	      2.03143622	      0.02225458	     28.80605311	      0.50276047	    -18.22577628	      0.00000000	      0.00000000	     15.62358548	     -1.44093663	      0.13536096	     24.02898902	      0.41938497	    -19.27143932	      0.00000000	      0.00000000	    -29.75947096	      0.57036672	      4.41172279	     14.88339174	    -17.98979267	     17.79459601	     42.17879879	     73.75293860	      0.00000000	      0.00000000	      0.89452684	    -21.01651479	     19.54781902	     42.17654088	     73.08887600	      0.00000000	      0.00000000
      0.64000000	     15.45034813	     -1.98283136	      0.13978742	      0.99337069	      0.93598756	     -0.30510909	    -29.60815696	      1.85980858	      0.35765315	     29.38439062	      0.51285436	    -19.23769475	      0.00000000	      0.00000000	     15.44937405	     -1.08494032	      0.52506890	     24.61174813	      0.42955604	    -19.16628889	      0.00000000	      0.00000000	    -29.79403833	      0.31901022	      4.16283167	     14.69763259	    -17.75400146	     17.64929933	     42.08075041	     73.77630140	      0.00000000	      0.00000000	      0.87690253	    -21.06885149	     19.61067334	     42.03814267	     73.10031415	      0.00000000	      0.00000000
      0.64400000	     15.53546912	     -1.69759820	      0.45954425	      1.00050903	      0.93632626	     -0.30596445	    -29.61833860	      1.58220086	     -0.37026747	     29.75670230	      0.51935243	    -21.46130785	      0.00000000	      0.00000000	     15.32029128	     -0.64210774	      0.91392834	     25.46946174	      0.44452597	    -18.21635718	      0.00000000	      0.00000000	    -29.75025819	      0.12972467	      3.75517209	     14.32452821	    -17.47978806	     17.17169128	     41.87310817	     73.95772592	      0.00000000	      0.00000000	      0.80647107	    -21.14679630	     19.70393881	     41.95034266	     73.08506352	      0.00000000	      0.00000000
      0.64800000	     15.56365800	     -1.46010685	      0.83646200	      1.00779164	      0.93660804	     -0.30695835	    -29.59443013	      1.42539846	     -0.90140381	     30.17057476	      0.52657587	    -23.16944957	      0.00000000	      0.00000000	     15.22559043	     -0.20428570	      1.42146123	     26.22876650	      0.45777833	    -17.72059945	      0.00000000	      0.00000000	    -29.62794625	      0.02258905	      3.29695340	     13.92772656	    -17.21615569	     16.74833220	     41.70966671	     74.09625281	      0.00000000	      0.00000000	      0.66641905	    -21.18955442	     19.66150688	     41.87491626	     73.11312756	      0.00000000	      0.00000000
      0.65200000	     15.65031676	     -1.15749506	      1.08013364	      1.01487443	      0.93711421	     -0.30769027	    -29.59898363	      1.15632355	     -1.23121315	     30.58535460	      0.53381514	    -24.94299067	      0.00000000	      0.00000000	     15.02164573	      0.25610440	      1.71343080	     26.91952090	      0.46983427	    -17.21005904	      0.00000000	      0.00000000	    -29.58842753	     -0.21874549	      2.91919752	     13.47669518	    -16.97337825	     16.23236370	     41.72976401	     74.11898212	      0.00000000	      0.00000000	      0.61278804	    -21.26167400	     19.79852779	     41.75910090	     73.15575198	      0.00000000	      0.00000000
